Coordinates
version=1
nRows=65
nColumns=12
inDegrees=yes

Units are S.I. units (second, meters, Newtons, ...)
Angles are in degrees

endheader
time	SC_y	SC_z	SC_x	AC_y	AC_z	AC_x	GH_y	GH_z	GH_yy	EL_x	PS_y
       0.0              -34.74          35.97         0.2846          41.46          1.847         -0.224          45.03          5.575         -105.3          55.27          60.36
   0.04908              -34.74          35.97         0.2915          41.46          1.844        -0.2262          45.02          5.583         -105.3          55.27          60.37
   0.09816              -34.74          35.97         0.2989          41.47           1.84        -0.2285          45.02          5.592         -105.2          55.26          60.38
    0.1472              -34.74          35.97         0.3068          41.47          1.837         -0.231          45.01          5.602         -105.2          55.26          60.38
    0.1963              -34.75          35.96         0.3152          41.47          1.833        -0.2337          45.01          5.612         -105.2          55.26          60.39
    0.2454              -34.75          35.96         0.3241          41.47          1.829        -0.2365           45.0          5.623         -105.2          55.26           60.4
    0.2945              -34.75          35.96         0.3336          41.47          1.825        -0.2395           45.0          5.635         -105.1          55.26          60.41
    0.3436              -34.76          35.96         0.3438          41.47           1.82        -0.2428          44.99          5.647         -105.1          55.26          60.42
    0.3926              -34.76          35.96         0.3547          41.47          1.815        -0.2462          44.99          5.661         -105.1          55.26          60.43
    0.4417              -34.76          35.95         0.3664          41.48           1.81        -0.2499          44.98          5.675         -105.0          55.25          60.44
    0.4908              -34.77          35.95          0.379          41.48          1.804        -0.2539          44.97           5.69         -105.0          55.25          60.45
    0.5399              -34.77          35.95         0.3925          41.48          1.798        -0.2582          44.96          5.707         -105.0          55.25          60.47
    0.5889              -34.78          35.94         0.4071          41.48          1.792        -0.2629          44.96          5.725         -104.9          55.25          60.48
     0.638              -34.78          35.94         0.4228          41.48          1.785        -0.2679          44.95          5.744         -104.9          55.25           60.5
    0.6871              -34.79          35.94         0.4399          41.49          1.777        -0.2733          44.94          5.765         -104.8          55.24          60.51
    0.7362              -34.79          35.93         0.4584          41.49          1.769        -0.2791          44.93          5.787         -104.8          55.24          60.53
    0.7853               -34.8          35.93         0.4785          41.49           1.76        -0.2855          44.91          5.812         -104.7          55.24          60.55
    0.8343              -34.81          35.92         0.5004           41.5           1.75        -0.2925           44.9          5.839         -104.7          55.24          60.57
    0.8834              -34.81          35.92         0.5243           41.5          1.739           -0.3          44.89          5.868         -104.6          55.23          60.59
    0.9325              -34.82          35.91         0.5504           41.5          1.728        -0.3084          44.87            5.9         -104.5          55.23          60.62
    0.9816              -34.83          35.91         0.5792          41.51          1.715        -0.3175          44.86          5.935         -104.4          55.22          60.65
     1.031              -34.84           35.9         0.6108          41.51            1.7        -0.3275          44.84          5.974         -104.3          55.22          60.68
      1.08              -34.85          35.89         0.6457          41.52          1.685        -0.3386          44.82          6.016         -104.2          55.21          60.71
     1.129              -34.87          35.89         0.6844          41.52          1.667        -0.3509          44.79          6.064         -104.1          55.21          60.75
     1.178              -34.88          35.88         0.7274          41.53          1.648        -0.3645          44.77          6.116         -104.0           55.2          60.79
     1.227              -34.89          35.87         0.7754          41.54          1.627        -0.3798          44.74          6.175         -103.8          55.19          60.83
     1.276              -34.91          35.85         0.8292          41.54          1.603        -0.3968          44.71          6.241         -103.7          55.19          60.89
     1.325              -34.93          35.84         0.8897          41.55          1.575         -0.416          44.67          6.315         -103.5          55.18          60.94
     1.374              -34.95          35.83         0.9581          41.56          1.545        -0.4377          44.63          6.399         -103.3          55.17          61.01
     1.423              -34.98          35.81          1.036          41.58           1.51        -0.4624          44.59          6.493         -103.1          55.16          61.08
     1.472              -35.01          35.79          1.124          41.59           1.47        -0.4905          44.54          6.602         -102.8          55.14          61.17
     1.521              -35.04          35.77          1.226           41.6          1.425        -0.5228          44.48          6.726         -102.5          55.13          61.27
     1.571              -35.08          35.75          1.343          41.62          1.372          -0.56          44.41           6.87         -102.1          55.11          61.38
      1.62              -35.12          35.72           1.48          41.64          1.311        -0.6033          44.33          7.037         -101.7          55.09          61.51
     1.669              -35.17          35.68          1.639          41.67          1.239         -0.654          44.24          7.232         -101.3          55.07          61.66
     1.718              -35.23          35.64          1.827          41.69          1.155        -0.7137          44.13          7.462         -100.7          55.04          61.84
     1.767               -35.3           35.6          2.051          41.73          1.054        -0.7846          43.99          7.735         -100.0          55.01          62.06
     1.816              -35.39          35.54          2.319          41.77         0.9342        -0.8697          43.84          8.063         -99.25          54.97          62.32
     1.865              -35.49          35.47          2.643          41.81         0.7888        -0.9726          43.65          8.459         -98.28          54.92          62.63
     1.914              -35.62          35.39          3.039          41.87         0.6111         -1.098          43.42          8.944         -97.11          54.86          63.01
     1.963              -35.78          35.28          3.528          41.95         0.3919         -1.253          43.13          9.542         -95.65          54.79          63.48
     2.012              -35.97          35.15          4.137          42.04         0.1185         -1.447          42.77          10.29         -93.84           54.7          64.06
     2.061              -36.22          34.99          4.905          42.15         -0.226         -1.691          42.33          11.23         -91.56          54.59           64.8
      2.11              -36.54          34.78          5.881           42.3        -0.6638           -2.0          41.76          12.42         -88.66          54.45          65.74
     2.159              -36.94          34.52          7.131          42.48         -1.224         -2.397          41.02          13.95         -84.95          54.27          66.94
     2.209              -37.45          34.18          8.734          42.72         -1.943         -2.906          40.09          15.91         -80.18          54.03          68.47
     2.258              -38.11          33.75          10.78          43.03         -2.862         -3.556          38.89          18.41          -74.1          53.74          70.44
     2.307              -38.94           33.2          13.36          43.41         -4.017         -4.373          37.38          21.56         -66.44          53.36          72.91
     2.356              -39.95          32.53           16.5          43.88         -5.425         -5.369          35.55           25.4         -57.12           52.9          75.92
     2.405              -41.11          31.76          20.13          44.42         -7.057         -6.524          33.42          29.85         -46.31          52.37          79.42
     2.454              -42.38          30.93          24.07           45.0         -8.823         -7.774          31.12          34.67         -34.61           51.8           83.2
     2.503              -43.65          30.09          28.01          45.59         -10.59         -9.024          28.82          39.48          -22.9          51.22          86.98
     2.552              -44.81          29.32          31.65          46.13         -12.22         -10.18          26.69          43.93         -12.09          50.69          90.47
     2.601              -45.82          28.66          34.78           46.6         -13.63         -11.17          24.86          47.77         -2.767          50.24          93.48
      2.65              -46.65          28.11          37.36          46.98         -14.78         -11.99          23.35          50.92          4.885          49.86          95.95
     2.699              -47.31          27.68          39.41          47.28          -15.7         -12.64          22.15          53.42          10.97          49.56          97.92
     2.748              -47.82          27.34          41.01          47.52         -16.42         -13.15          21.22          55.39          15.74          49.33          99.46
     2.798              -48.22          27.07          42.26          47.71         -16.98         -13.55          20.49          56.91          19.45          49.15          100.7
     2.847              -48.54          26.87          43.24          47.85         -17.42         -13.86          19.92          58.11          22.35           49.0          101.6
     2.896              -48.79           26.7           44.0          47.97         -17.77          -14.1          19.47          59.05          24.63          48.89          102.3
     2.945              -48.98          26.57          44.61          48.06         -18.04         -14.29          19.11          59.79          26.44           48.8          102.9
     2.994              -49.14          26.47           45.1          48.13         -18.26         -14.45          18.83          60.39          27.89          48.73          103.4
     3.043              -49.27          26.39           45.5          48.19         -18.44         -14.57          18.59          60.87          29.07          48.68          103.8
     3.092              -49.37          26.32          45.82          48.24         -18.58         -14.68           18.4          61.27          30.04          48.63          104.1
     3.141              -49.46          26.26          46.09          48.28          -18.7         -14.76          18.25           61.6          30.83          48.59          104.3
